<svg id="bold" fill="#fff" enable-background="new 0 0 24 24" height="512" viewBox="0 0 24 24" width="512" xmlns="http://www.w3.org/2000/svg"><path d="m13.25 7h-9.5c-.414 0-.75.336-.75.75v1.5c0 .414.336.75.75.75h9.5c.414 0 .75-.336.75-.75v-1.5c0-.414-.336-.75-.75-.75z"/><path d="m17.854 0c-.818 0-1.597.311-2.175.845-.994-.605-2.411-.463-3.252.309-.749-.393-1.762-.302-2.429.224-1.035-.193-1.998.619-1.998 1.622s.962 1.819 1.998 1.623c.667.525 1.681.616 2.429.224.841.772 2.258.913 3.252.309.578.533 1.357.844 2.175.844 1.735 0 3.146-1.346 3.146-3s-1.411-3-3.146-3z"/><path d="m16.926 23.238c-.035-.057-3.153-5.219-3.801-12.238h-9.25c-.114 1.231-.307 2.4-.543 3.5h3.918c.414 0 .75.336.75.75s-.336.75-.75.75h-4.277c-.139.524-.287 1.022-.439 1.5h4.716c.414 0 .75.336.75.75s-.336.75-.75.75h-5.229c-.966 2.606-1.928 4.207-1.947 4.238-.205.335.037.762.426.762h16c.391 0 .63-.43.426-.762z"/><path d="m23.5 11h-9c-.138 0-.262.056-.352.145.668 6.6 3.584 11.493 3.631 11.57.239.39.273.861.122 1.284h5.599c.276 0 .5-.224.5-.5v-12c0-.275-.224-.499-.5-.499zm-3.25 10h-2.5c-.414 0-.75-.336-.75-.75s.336-.75.75-.75h2.5c.414 0 .75.336.75.75s-.336.75-.75.75zm0-3h-2.5c-.414 0-.75-.336-.75-.75s.336-.75.75-.75h2.5c.414 0 .75.336.75.75s-.336.75-.75.75zm0-3h-2.5c-.414 0-.75-.336-.75-.75s.336-.75.75-.75h2.5c.414 0 .75.336.75.75s-.336.75-.75.75z"/></svg>