<svg height="512pt" fill="#fff" viewBox="0 -32 512 512" width="512pt" xmlns="http://www.w3.org/2000/svg"><path d="m512 255.8125v-30h-25.066406l-17.023438-195.8125h16.089844v-30h-131.230469v30h16.089844l-17.023437 195.8125h-14.992188l-16.078125-135.808594h15.570313v-30h-131.230469v30h15.570312l-16.078125 135.808594h-13.429687v-57.773438l-193.167969 75.578126 10.949219 27.933593 13.050781-4.957031v150.71875h-24v30h512v-30h-24v-161.5zm-342.976562 160.585938h-30v-99.847657h-30.46875v99.847657h-30v-129.847657h90.46875zm129.152343-41.125h-89.597656v-30h89.597656zm0-60.003907h-89.597656v-30h89.597656zm120.007813 60.003907h-89.597656v-30h89.597656zm0-60.003907h-89.597656v-30h89.597656zm0 0"/></svg>