<svg version="1" xmlns="http://www.w3.org/2000/svg" width="682.667" height="682.667" viewBox="0 0 512.000000 512.000000"><path d="M50.1 1.5C32.4 5.4 15.5 18.6 7.2 35-.5 50.3 0 34.5 0 256c0 221.4-.5 205.4 7.2 220.9 8.1 16.5 25.4 29.9 43.3 33.6 10.6 2.2 400.5 2.2 410.9 0 18.2-3.8 35-16.8 43.4-33.5 7.7-15.3 7.2.5 7.2-221 0-221.4.5-205.4-7.2-220.9-8.1-16.5-25.4-29.9-43.3-33.6C451.3-.6 59.9-.6 50.1 1.5zm157.5 78.6c7.2 1.3 14 4.9 18.7 9.8 1.9 2 13.5 18.2 25.7 36.1 12.3 17.9 22.4 32.6 22.5 32.8.2.2 5.7-6 12.4-13.7 6.7-7.7 13.7-15.2 15.6-16.6 10.9-8.4 28.7-8.7 40.6-.8 3.7 2.5 32.5 35 31.7 35.9-.3.2-56.6.3-125.1.2l-124.6-.3 24-35c13.2-19.3 25.5-36.5 27.2-38.3 4.5-4.7 11.2-8.4 17.7-9.8 7.1-1.6 6.7-1.6 13.6-.3zm244.6 110.7c2.8 2.8 3.3 3.9 3.3 8.2 0 4.3-.5 5.4-3.3 8.2-3.1 3.1-3.7 3.3-11.7 3.7l-8.4.3-.4 70.7c-.3 64.2-.5 71.1-2.1 76.6-2.5 8.5-6.9 17.3-12 24.3-4.5 6-16.9 17.2-19.2 17.2-.6 0-1.5-1.5-1.8-3.4-2.1-11.2-12.9-24.2-25.3-30.3-6.9-3.4-8.5-3.8-17.5-4.1-8.1-.4-11-.1-16.6 1.7-8.8 2.9-16.5 8.2-22.4 15.6-5.8 7.1-8.8 14.6-9.7 24l-.6 7h-97l-.6-7c-1.2-13.4-7.3-24.1-18.7-32.7-8.9-6.8-17.3-9.2-30.1-8.6-8.9.3-10.5.7-17.4 4.1-12.4 6.1-23.2 19.1-25.3 30.3-.3 1.9-1.1 3.4-1.7 3.4-2.2 0-11.9-8.4-17.2-14.7-5.9-7.2-11.4-17.6-14.1-26.8-1.6-5.4-1.8-12.7-2.1-76.6l-.4-70.7-8.5-.3c-8.5-.4-8.6-.4-12.1-4.3-3.2-3.5-3.5-4.2-3-8.3.5-4.9 4.3-9.9 8.1-10.6 1.1-.2 88.2-.4 193.3-.3l191.3.1 3.2 3.3zM170.6 387.4c12.2 5.7 16.9 19.7 10.6 31.7-5.1 9.9-15.4 14.5-26.4 11.9-7.7-1.9-15.1-9.5-16.8-17.2-4.3-19.3 14.7-34.7 32.6-26.4zm192.7.9c7.6 4.5 12.6 14.7 11.3 23-2.2 13.6-15.8 23.1-28.4 19.9-14.5-3.8-22.1-19-16.1-32.2 2.7-6 5.4-8.8 11.4-11.7 6.6-3.2 15.3-2.8 21.8 1z"/><path d="M135 243.3c-1.9.7-4.4 2.7-5.7 4.6-2.3 3.4-2.3 3.4-2.3 42 0 36.5.1 38.8 2 41.8 4.2 6.9 12.5 7.9 18.2 2.3l2.8-2.8v-82l-3.1-3.1c-1.7-1.7-3.7-3.1-4.4-3.1-.7 0-1.9-.2-2.7-.4-.7-.3-2.9 0-4.8.7zM181.5 243.4c-1.6.7-3.9 2.3-5 3.6-1.9 2.1-2 3.6-2 43v40.9l2.9 3c1.6 1.6 4.2 3.3 5.7 3.6 4.1.9 9.5-1.2 11.9-4.5 1.9-2.7 2-4.3 2-42.4 0-27.7-.3-40.3-1.2-42-2.2-5-9.2-7.5-14.3-5.2zM228.4 243.4c-1.7.8-4 2.6-5.2 4.1-2.2 2.7-2.2 3.3-2.2 42.6v39.8l3.1 3.5c3.8 4.4 8.3 5.4 13.3 3.1 6.6-3.2 6.6-3 6.6-46.8 0-38.9 0-39.5-2.2-42.2-1.9-2.4-7.4-5.6-9.5-5.5-.4.1-2.2.7-3.9 1.4zM275.4 243.4c-1.7.8-4 2.6-5.2 4.1-2.2 2.7-2.2 3.3-2.2 42.2 0 43.8 0 43.6 6.6 46.8 5 2.3 9.5 1.3 13.3-3.1l3.1-3.5v-39.8c0-39.3 0-39.9-2.2-42.6-1.9-2.4-7.4-5.6-9.5-5.5-.4.1-2.2.7-3.9 1.4zM321.9 243.6c-6.9 2.9-6.9 2.6-6.9 46.6 0 37.2.1 39.5 2 42.5 4 6.6 13 6.6 18.5.1l2.5-3v-39.1c0-41.8-.1-42.3-5-45.8-3.7-2.5-7-2.9-11.1-1.3zM370.3 242.7c-1.3.3-3.6 1.8-5.3 3.4l-3 3.1v40.7c0 39.7.1 40.9 2.1 43.4 4.4 5.7 12.7 5.7 18.1 0l2.3-2.5.3-39.4c.2-34 .1-39.8-1.3-42.4-2.4-4.7-7.8-7.3-13.2-6.3z"/></svg>